<?xml version="1.0" standalone="no"?>
<!DOCTYPE svg PUBLIC "-//W3C//DTD SVG 20010904//EN"
 "http://www.w3.org/TR/2001/REC-SVG-20010904/DTD/svg10.dtd">
<svg version="1.0" xmlns="http://www.w3.org/2000/svg"
 width="512.000000pt" height="512.000000pt" viewBox="0 0 512.000000 512.000000"
 preserveAspectRatio="xMidYMid meet">
<metadata>
Created by potrace 1.15, written by Peter Selinger 2001-2017
</metadata>
<g transform="translate(0.000000,512.000000) scale(0.100000,-0.100000)"
fill="#000000" stroke="none">
<path d="M2118 5053 c-32 -2 -58 -8 -58 -13 0 -6 -15 -10 -34 -10 -19 0 -36
-6 -39 -13 -3 -9 -16 -12 -36 -9 -19 2 -31 0 -31 -7 0 -6 -11 -11 -24 -11 -13
0 -27 -7 -30 -16 -4 -10 -13 -13 -26 -9 -14 5 -20 2 -20 -10 0 -12 -6 -15 -20
-10 -14 4 -20 2 -20 -8 0 -9 -6 -17 -12 -20 -7 -2 -10 -8 -5 -12 4 -5 17 -4
30 2 99 48 197 51 213 8 9 -22 -15 -74 -54 -117 l-34 -38 33 6 c19 4 36 7 39
6 29 0 26 -8 -14 -43 -56 -49 -59 -64 -9 -38 21 10 56 19 79 19 83 0 107 -79
59 -195 -14 -33 -25 -62 -25 -64 0 -11 51 57 61 81 26 63 42 10 42 -132 -1
-81 1 -89 9 -55 5 22 12 58 14 80 9 66 11 69 41 48 47 -32 121 -65 134 -61 6
2 -10 18 -37 36 -58 38 -114 88 -114 102 0 10 53 3 80 -10 8 -4 35 -10 60 -13
25 -3 36 -3 26 0 -66 19 -166 90 -190 135 -44 81 8 120 158 120 69 0 83 2 56
8 -19 5 -53 13 -75 19 -22 6 -69 11 -105 11 -60 0 -63 1 -43 15 12 8 45 20 73
25 28 5 57 13 63 17 15 10 -64 21 -151 22 -84 1 -132 22 -132 56 0 29 49 65
88 65 13 0 33 6 45 12 12 7 69 15 127 19 l105 6 -120 -1 c-66 0 -146 -1 -177
-3z"/>
<path d="M3231 3895 c-13 -57 -23 -64 -61 -45 -11 6 -29 15 -40 20 -35 18
-129 12 -159 -9 -36 -26 -80 -108 -87 -164 -6 -44 -6 -46 34 -72 33 -22 47
-25 74 -20 31 7 68 38 68 57 0 17 18 7 23 -13 10 -37 27 -9 27 43 0 39 -6 59
-26 85 -24 31 -24 33 -5 33 28 0 84 -58 96 -100 7 -24 17 -36 35 -40 22 -5 26
-15 39 -79 11 -60 12 -83 1 -129 -32 -147 -115 -294 -265 -472 -44 -52 -91
-108 -105 -125 -81 -96 -118 -114 -200 -96 -58 13 -110 27 -134 36 -17 7 -18
4 -11 -36 44 -283 101 -406 275 -592 53 -57 183 -157 205 -157 3 0 -9 19 -28
43 -67 85 -107 175 -107 247 0 57 37 184 74 257 33 66 50 89 195 277 82 105
188 280 237 386 9 19 20 43 25 52 5 10 9 25 9 33 0 8 4 23 9 33 5 9 14 42 21
73 11 57 3 142 -21 229 -19 67 -68 170 -81 170 -4 0 -8 6 -8 13 0 6 -14 28
-30 47 -16 19 -30 38 -30 42 0 4 -8 12 -19 17 -16 9 -19 4 -30 -44z"/>
<path d="M2295 3898 c-22 -6 -77 -12 -123 -12 -45 -1 -82 -4 -82 -8 0 -12 42
-83 54 -91 7 -4 3 -9 -11 -13 -31 -8 -29 -16 11 -58 39 -42 63 -46 72 -11 7
28 24 24 24 -6 0 -10 5 -19 10 -19 6 0 10 -8 11 -17 0 -10 6 -2 12 17 10 32
11 33 15 11 7 -41 38 -66 83 -66 34 0 46 6 70 33 24 27 30 30 36 17 5 -13 7
-14 14 -3 14 22 10 87 -7 113 -15 23 -15 25 -1 25 20 0 77 -81 77 -109 0 -25
20 -39 21 -14 4 68 -21 146 -55 177 -42 39 -155 55 -231 34z"/>
<path d="M1887 3665 c-5 -11 -13 -28 -18 -37 -5 -10 -9 -27 -9 -37 0 -11 -4
-23 -10 -26 -5 -3 -10 -19 -10 -35 0 -16 -4 -32 -10 -35 -5 -3 -10 -21 -10
-39 0 -17 -4 -36 -9 -41 -15 -16 -23 -110 -23 -265 0 -148 7 -226 23 -236 5
-3 9 -18 9 -35 0 -16 5 -29 10 -29 6 0 10 -9 10 -21 0 -11 8 -33 18 -47 10
-15 24 -39 31 -53 7 -14 24 -39 38 -55 14 -16 35 -40 47 -54 36 -42 146 -133
241 -200 129 -90 209 -163 255 -232 l40 -60 0 36 c0 20 -4 44 -9 54 -5 9 -28
58 -51 107 -24 50 -46 92 -50 95 -3 3 -20 25 -38 50 -17 25 -42 58 -57 75 -53
59 -139 263 -165 390 -22 105 -32 129 -75 175 -52 56 -112 150 -139 215 -16
40 -21 81 -26 205 -3 94 -9 147 -13 135z"/>
<path d="M1670 2227 c-75 -27 -173 -107 -385 -315 -47 -45 -85 -86 -85 -92 0
-5 -67 -77 -150 -160 -82 -82 -150 -155 -150 -160 0 -6 -38 -49 -85 -95 -47
-47 -85 -89 -85 -94 0 -5 -22 -32 -50 -60 -28 -28 -50 -56 -50 -62 0 -6 -15
-25 -32 -41 l-33 -31 0 -170 c0 -127 3 -171 13 -175 6 -2 12 -12 12 -22 0 -10
5 -22 10 -25 6 -3 10 -15 10 -26 0 -10 5 -19 10 -19 6 0 10 -6 10 -13 0 -7 9
-23 20 -35 11 -12 20 -28 20 -37 0 -8 5 -15 10 -15 6 0 10 -6 10 -12 0 -15 30
-54 78 -104 17 -18 32 -38 32 -44 0 -7 18 -29 40 -50 22 -21 40 -44 40 -50 0
-7 13 -25 30 -40 16 -15 30 -31 30 -34 0 -12 69 -76 82 -76 7 0 31 38 53 83
68 140 223 274 348 301 18 4 27 13 27 26 0 11 -4 20 -10 20 -5 0 -10 9 -10 20
0 11 -4 20 -10 20 -5 0 -10 9 -10 20 0 11 -4 20 -10 20 -5 0 -10 9 -10 20 0
11 -4 20 -10 20 -5 0 -10 9 -10 20 0 11 -4 20 -8 20 -5 0 -23 27 -40 61 l-31
60 64 65 c36 35 69 64 75 64 6 0 46 36 90 80 44 44 84 80 91 80 6 0 24 14 39
30 15 17 32 30 38 30 5 0 20 11 33 25 13 13 28 25 32 25 5 0 15 7 23 15 18 18
44 9 44 -16 0 -10 5 -19 10 -19 6 0 10 -6 10 -13 0 -7 9 -19 20 -27 11 -8 20
-22 20 -32 0 -10 5 -18 10 -18 6 0 10 -8 10 -18 0 -10 9 -24 20 -32 11 -8 20
-22 20 -32 0 -10 5 -18 10 -18 6 0 10 -9 10 -20 0 -11 5 -20 10 -20 6 0 10 -9
10 -20 0 -11 5 -20 10 -20 6 0 10 -13 10 -30 0 -16 5 -30 10 -30 6 0 10 -9 10
-20 0 -11 5 -20 10 -20 6 0 10 -9 10 -20 0 -11 5 -20 10 -20 6 0 10 -13 10
-30 0 -16 5 -30 10 -30 6 0 10 -13 10 -29 0 -17 5 -33 10 -36 6 -3 10 -19 10
-36 0 -16 5 -29 10 -29 6 0 10 -33 10 -80 0 -47 -4 -80 -10 -80 -5 0 -10 -9
-10 -20 0 -11 -4 -20 -10 -20 -5 0 -10 -9 -10 -20 0 -11 -4 -20 -10 -20 -5 0
-10 -9 -10 -20 0 -11 -4 -20 -10 -20 -5 0 -10 -9 -10 -20 0 -11 -4 -20 -10
-20 -5 0 -10 -9 -10 -20 0 -11 -4 -20 -10 -20 -17 0 -11 -28 8 -34 9 -2 52 -7
95 -11 70 -6 85 -11 140 -49 38 -26 63 -51 67 -66 4 -16 14 -26 28 -28 12 -2
22 -10 22 -18 0 -26 -69 -16 -141 21 -52 26 -87 36 -141 41 -40 4 -71 4 -68 1
3 -3 35 -20 70 -38 36 -17 84 -51 107 -76 l42 -44 260 7 c222 6 261 9 266 23
3 8 13 83 21 166 18 181 21 826 4 944 -23 158 -51 283 -80 356 -4 11 -13 36
-20 55 -7 19 -21 54 -31 77 -11 24 -19 45 -19 48 0 2 -44 96 -99 207 -94 193
-131 248 -166 248 -8 0 -15 5 -15 10 0 6 -7 10 -15 10 -10 0 -15 -10 -15 -30
0 -16 4 -30 9 -30 19 0 28 -123 16 -233 l-7 -57 -31 22 c-18 12 -34 25 -37 29
-9 12 -71 40 -81 37 -6 -2 4 -18 21 -36 41 -43 90 -121 90 -144 0 -28 -20 -57
-82 -119 -61 -61 -64 -68 -48 -100 17 -31 -11 -24 -56 15 l-39 34 2 75 c4 91
-6 105 -116 179 -89 60 -106 78 -122 125 -14 43 -29 28 -29 -29 0 -45 16 -84
48 -119 31 -35 18 -41 -41 -21 -128 45 -156 118 -122 312 16 91 20 180 8 180
-5 -1 -24 -7 -43 -13z"/>
<path d="M3577 2163 c-4 -3 -7 -19 -7 -35 0 -16 -6 -36 -14 -43 -12 -12 -16
-12 -26 0 -19 23 -30 18 -30 -12 0 -36 -42 -125 -80 -171 -23 -28 -30 -47 -30
-78 0 -41 22 -74 49 -74 9 0 10 -6 5 -17 -12 -27 -7 -86 8 -98 8 -5 22 -28 31
-50 10 -22 28 -60 41 -85 13 -25 29 -63 35 -85 7 -22 16 -49 21 -60 34 -76 47
-168 33 -236 l-6 -33 -13 34 -12 35 -10 -27 c-7 -16 -9 -68 -6 -130 3 -60 -1
-151 -9 -218 l-14 -115 -2 173 c-1 165 -11 218 -27 136 -7 -40 2 -275 16 -424
5 -52 14 -187 20 -300 8 -147 15 -211 26 -228 13 -20 22 -22 104 -22 103 0
100 -4 80 101 -26 135 -31 233 -19 326 l13 93 35 7 c20 5 72 8 116 7 69 -1 88
-5 137 -32 31 -17 65 -38 75 -46 10 -8 33 -27 50 -41 18 -15 47 -51 65 -81 18
-30 39 -54 46 -54 18 0 62 46 62 65 0 8 5 15 10 15 6 0 10 9 10 19 0 10 7 21
15 25 8 3 15 12 15 21 0 8 5 15 10 15 6 0 10 9 10 20 0 11 5 20 10 20 6 0 10
9 10 20 0 11 5 20 10 20 6 0 10 9 10 20 0 11 5 20 10 20 6 0 10 9 10 20 0 11
5 20 10 20 6 0 10 9 10 20 0 11 5 20 10 20 6 0 10 9 10 19 0 11 5 23 10 26 6
3 10 17 10 30 0 13 5 27 10 30 6 3 10 19 10 35 0 15 5 30 12 32 9 3 12 48 13
164 l0 160 -52 52 c-29 28 -53 56 -53 63 0 6 -29 40 -65 76 -36 35 -65 69 -65
74 0 6 -27 37 -60 69 -33 32 -60 64 -60 70 0 6 -40 51 -90 100 -49 49 -90 95
-90 101 0 20 -418 429 -438 429 -10 0 -22 -3 -25 -7z m253 -1204 c0 -5 5 -9
11 -9 19 0 39 -28 39 -54 0 -14 -4 -26 -10 -26 -5 0 -10 -13 -10 -29 0 -16 -6
-31 -15 -35 -8 -3 -15 -15 -15 -26 0 -11 -4 -20 -10 -20 -5 0 -10 -9 -10 -19
0 -11 -4 -23 -10 -26 -5 -3 -10 -17 -10 -31 0 -13 -4 -24 -10 -24 -6 0 -10 32
-10 75 0 43 4 75 10 75 6 0 10 35 10 84 0 79 1 84 20 79 11 -3 20 -9 20 -14z"/>
</g>
</svg>
